<mxfile host="Electron" modified="2023-08-25T02:58:06.591Z" agent="Mozilla/5.0 (Windows NT 10.0; Win64; x64) AppleWebKit/537.36 (KHTML, like Gecko) draw.io/21.6.5 Chrome/114.0.5735.243 Electron/25.3.1 Safari/537.36" etag="Heb8YgnhYnOH0zb548nf" version="21.6.5" type="device" pages="2">
  <diagram name="eyeSystem_ROS2_RP2040.ino" id="goimmvsqGt8lVbq83Hvw">
    <mxGraphModel dx="494" dy="508" grid="1" gridSize="10" guides="1" tooltips="1" connect="1" arrows="1" fold="1" page="1" pageScale="1" pageWidth="827" pageHeight="1169" math="0" shadow="0">
      <root>
        <mxCell id="0" />
        <mxCell id="1" parent="0" />
        <mxCell id="EUbtDjJVGPlhu4X-F3TT-9" style="edgeStyle=orthogonalEdgeStyle;rounded=0;orthogonalLoop=1;jettySize=auto;html=1;exitX=0.5;exitY=1;exitDx=0;exitDy=0;entryX=0.5;entryY=0;entryDx=0;entryDy=0;" parent="1" source="EUbtDjJVGPlhu4X-F3TT-1" target="EUbtDjJVGPlhu4X-F3TT-2" edge="1">
          <mxGeometry relative="1" as="geometry" />
        </mxCell>
        <mxCell id="EUbtDjJVGPlhu4X-F3TT-26" style="edgeStyle=orthogonalEdgeStyle;rounded=0;orthogonalLoop=1;jettySize=auto;html=1;exitX=0.5;exitY=1;exitDx=0;exitDy=0;entryX=0.5;entryY=0;entryDx=0;entryDy=0;" parent="1" source="EUbtDjJVGPlhu4X-F3TT-1" target="EUbtDjJVGPlhu4X-F3TT-25" edge="1">
          <mxGeometry relative="1" as="geometry" />
        </mxCell>
        <mxCell id="EUbtDjJVGPlhu4X-F3TT-1" value="開始" style="ellipse;whiteSpace=wrap;html=1;" parent="1" vertex="1">
          <mxGeometry x="260" y="70" width="110" height="40" as="geometry" />
        </mxCell>
        <mxCell id="EUbtDjJVGPlhu4X-F3TT-10" style="edgeStyle=orthogonalEdgeStyle;rounded=0;orthogonalLoop=1;jettySize=auto;html=1;exitX=0.5;exitY=1;exitDx=0;exitDy=0;entryX=0.5;entryY=0;entryDx=0;entryDy=0;" parent="1" source="EUbtDjJVGPlhu4X-F3TT-2" target="EUbtDjJVGPlhu4X-F3TT-3" edge="1">
          <mxGeometry relative="1" as="geometry" />
        </mxCell>
        <mxCell id="EUbtDjJVGPlhu4X-F3TT-2" value="シリアル通信の初期化" style="rounded=1;whiteSpace=wrap;html=1;" parent="1" vertex="1">
          <mxGeometry x="113.75" y="150" width="130" height="50" as="geometry" />
        </mxCell>
        <mxCell id="EUbtDjJVGPlhu4X-F3TT-11" style="edgeStyle=orthogonalEdgeStyle;rounded=0;orthogonalLoop=1;jettySize=auto;html=1;exitX=0.5;exitY=1;exitDx=0;exitDy=0;entryX=0.5;entryY=0;entryDx=0;entryDy=0;" parent="1" source="EUbtDjJVGPlhu4X-F3TT-3" target="EUbtDjJVGPlhu4X-F3TT-5" edge="1">
          <mxGeometry relative="1" as="geometry" />
        </mxCell>
        <mxCell id="EUbtDjJVGPlhu4X-F3TT-3" value="液晶通信の初期化" style="rounded=1;whiteSpace=wrap;html=1;" parent="1" vertex="1">
          <mxGeometry x="123.75" y="240" width="110" height="50" as="geometry" />
        </mxCell>
        <mxCell id="EUbtDjJVGPlhu4X-F3TT-12" style="edgeStyle=orthogonalEdgeStyle;rounded=0;orthogonalLoop=1;jettySize=auto;html=1;exitX=0.5;exitY=1;exitDx=0;exitDy=0;entryX=0.5;entryY=0;entryDx=0;entryDy=0;" parent="1" source="EUbtDjJVGPlhu4X-F3TT-5" target="EUbtDjJVGPlhu4X-F3TT-6" edge="1">
          <mxGeometry relative="1" as="geometry" />
        </mxCell>
        <mxCell id="EUbtDjJVGPlhu4X-F3TT-13" style="edgeStyle=orthogonalEdgeStyle;rounded=0;orthogonalLoop=1;jettySize=auto;html=1;exitX=0.5;exitY=1;exitDx=0;exitDy=0;entryX=0.5;entryY=0;entryDx=0;entryDy=0;" parent="1" source="EUbtDjJVGPlhu4X-F3TT-5" target="EUbtDjJVGPlhu4X-F3TT-7" edge="1">
          <mxGeometry relative="1" as="geometry">
            <Array as="points">
              <mxPoint x="179" y="400" />
              <mxPoint x="290" y="400" />
              <mxPoint x="290" y="510" />
              <mxPoint x="179" y="510" />
            </Array>
          </mxGeometry>
        </mxCell>
        <mxCell id="EUbtDjJVGPlhu4X-F3TT-5" value="シリアル通信から信号を受信したか" style="rounded=1;whiteSpace=wrap;html=1;" parent="1" vertex="1">
          <mxGeometry x="128.75" y="320" width="100" height="60" as="geometry" />
        </mxCell>
        <mxCell id="EUbtDjJVGPlhu4X-F3TT-30" style="edgeStyle=orthogonalEdgeStyle;rounded=0;orthogonalLoop=1;jettySize=auto;html=1;exitX=0.5;exitY=1;exitDx=0;exitDy=0;entryX=0.5;entryY=0;entryDx=0;entryDy=0;" parent="1" source="EUbtDjJVGPlhu4X-F3TT-6" target="EUbtDjJVGPlhu4X-F3TT-5" edge="1">
          <mxGeometry relative="1" as="geometry">
            <Array as="points">
              <mxPoint x="179" y="490" />
              <mxPoint x="70" y="490" />
              <mxPoint x="70" y="300" />
              <mxPoint x="179" y="300" />
            </Array>
          </mxGeometry>
        </mxCell>
        <mxCell id="EUbtDjJVGPlhu4X-F3TT-6" value="受け取った値をEyeControlオブジェクトに保存" style="rounded=1;whiteSpace=wrap;html=1;" parent="1" vertex="1">
          <mxGeometry x="106.25" y="420" width="145" height="60" as="geometry" />
        </mxCell>
        <mxCell id="EUbtDjJVGPlhu4X-F3TT-15" style="edgeStyle=orthogonalEdgeStyle;rounded=0;orthogonalLoop=1;jettySize=auto;html=1;exitX=0.5;exitY=1;exitDx=0;exitDy=0;entryX=0.5;entryY=0;entryDx=0;entryDy=0;" parent="1" source="EUbtDjJVGPlhu4X-F3TT-7" target="EUbtDjJVGPlhu4X-F3TT-8" edge="1">
          <mxGeometry relative="1" as="geometry" />
        </mxCell>
        <mxCell id="EUbtDjJVGPlhu4X-F3TT-17" style="edgeStyle=orthogonalEdgeStyle;rounded=0;orthogonalLoop=1;jettySize=auto;html=1;exitX=0.5;exitY=1;exitDx=0;exitDy=0;entryX=0.5;entryY=0;entryDx=0;entryDy=0;" parent="1" source="EUbtDjJVGPlhu4X-F3TT-7" target="EUbtDjJVGPlhu4X-F3TT-5" edge="1">
          <mxGeometry relative="1" as="geometry">
            <Array as="points">
              <mxPoint x="179" y="590" />
              <mxPoint x="70" y="590" />
              <mxPoint x="70" y="300" />
              <mxPoint x="179" y="300" />
            </Array>
          </mxGeometry>
        </mxCell>
        <mxCell id="EUbtDjJVGPlhu4X-F3TT-7" value="瞬きフラグを確認" style="rounded=1;whiteSpace=wrap;html=1;" parent="1" vertex="1">
          <mxGeometry x="120" y="520" width="117.5" height="50" as="geometry" />
        </mxCell>
        <mxCell id="EUbtDjJVGPlhu4X-F3TT-16" style="edgeStyle=orthogonalEdgeStyle;rounded=0;orthogonalLoop=1;jettySize=auto;html=1;exitX=0.5;exitY=1;exitDx=0;exitDy=0;entryX=0.5;entryY=0;entryDx=0;entryDy=0;" parent="1" target="EUbtDjJVGPlhu4X-F3TT-5" edge="1">
          <mxGeometry relative="1" as="geometry">
            <mxPoint x="158.71999999999989" y="670" as="sourcePoint" />
            <mxPoint x="158.71999999999989" y="320" as="targetPoint" />
            <Array as="points">
              <mxPoint x="180" y="670" />
              <mxPoint x="180" y="690" />
              <mxPoint x="70" y="690" />
              <mxPoint x="70" y="300" />
              <mxPoint x="179" y="300" />
            </Array>
          </mxGeometry>
        </mxCell>
        <mxCell id="EUbtDjJVGPlhu4X-F3TT-8" value="瞬きして瞬きフラグも元に戻す" style="rounded=1;whiteSpace=wrap;html=1;" parent="1" vertex="1">
          <mxGeometry x="118.75" y="610" width="120" height="60" as="geometry" />
        </mxCell>
        <mxCell id="EUbtDjJVGPlhu4X-F3TT-18" value="" style="ellipse;whiteSpace=wrap;html=1;aspect=fixed;" parent="1" vertex="1">
          <mxGeometry height="30" as="geometry" />
        </mxCell>
        <mxCell id="EUbtDjJVGPlhu4X-F3TT-21" value="瞬きフラグ＝False" style="text;html=1;align=center;verticalAlign=middle;resizable=0;points=[];autosize=1;strokeColor=none;fillColor=none;" parent="1" vertex="1">
          <mxGeometry x="60" y="570" width="120" height="30" as="geometry" />
        </mxCell>
        <mxCell id="EUbtDjJVGPlhu4X-F3TT-22" value="瞬きフラグ＝True" style="text;html=1;align=center;verticalAlign=middle;resizable=0;points=[];autosize=1;strokeColor=none;fillColor=none;" parent="1" vertex="1">
          <mxGeometry x="170" y="585" width="120" height="30" as="geometry" />
        </mxCell>
        <mxCell id="EUbtDjJVGPlhu4X-F3TT-23" value="はい" style="text;html=1;align=center;verticalAlign=middle;resizable=0;points=[];autosize=1;strokeColor=none;fillColor=none;" parent="1" vertex="1">
          <mxGeometry x="128.75" y="390" width="50" height="30" as="geometry" />
        </mxCell>
        <mxCell id="EUbtDjJVGPlhu4X-F3TT-24" value="いいえ" style="text;html=1;align=center;verticalAlign=middle;resizable=0;points=[];autosize=1;strokeColor=none;fillColor=none;" parent="1" vertex="1">
          <mxGeometry x="228.75" y="380" width="60" height="30" as="geometry" />
        </mxCell>
        <mxCell id="EUbtDjJVGPlhu4X-F3TT-28" style="edgeStyle=orthogonalEdgeStyle;rounded=0;orthogonalLoop=1;jettySize=auto;html=1;exitX=0.5;exitY=1;exitDx=0;exitDy=0;entryX=0.5;entryY=0;entryDx=0;entryDy=0;" parent="1" source="EUbtDjJVGPlhu4X-F3TT-25" target="EUbtDjJVGPlhu4X-F3TT-27" edge="1">
          <mxGeometry relative="1" as="geometry" />
        </mxCell>
        <mxCell id="EUbtDjJVGPlhu4X-F3TT-33" style="edgeStyle=orthogonalEdgeStyle;rounded=0;orthogonalLoop=1;jettySize=auto;html=1;exitX=0.5;exitY=1;exitDx=0;exitDy=0;entryX=0.5;entryY=0;entryDx=0;entryDy=0;" parent="1" source="EUbtDjJVGPlhu4X-F3TT-25" target="EUbtDjJVGPlhu4X-F3TT-29" edge="1">
          <mxGeometry relative="1" as="geometry">
            <Array as="points">
              <mxPoint x="445" y="220" />
              <mxPoint x="540" y="220" />
              <mxPoint x="540" y="310" />
              <mxPoint x="445" y="310" />
            </Array>
          </mxGeometry>
        </mxCell>
        <mxCell id="EUbtDjJVGPlhu4X-F3TT-25" value="目の表示が更新されたか" style="rounded=1;whiteSpace=wrap;html=1;" parent="1" vertex="1">
          <mxGeometry x="400" y="150" width="90" height="50" as="geometry" />
        </mxCell>
        <mxCell id="EUbtDjJVGPlhu4X-F3TT-31" style="edgeStyle=orthogonalEdgeStyle;rounded=0;orthogonalLoop=1;jettySize=auto;html=1;exitX=0.5;exitY=1;exitDx=0;exitDy=0;entryX=0.5;entryY=0;entryDx=0;entryDy=0;" parent="1" source="EUbtDjJVGPlhu4X-F3TT-27" target="EUbtDjJVGPlhu4X-F3TT-25" edge="1">
          <mxGeometry relative="1" as="geometry">
            <Array as="points">
              <mxPoint x="445" y="300" />
              <mxPoint x="330" y="300" />
              <mxPoint x="330" y="130" />
              <mxPoint x="445" y="130" />
            </Array>
          </mxGeometry>
        </mxCell>
        <mxCell id="EUbtDjJVGPlhu4X-F3TT-27" value="瞬きまでの時間と更新有無の保持情報をリセットする" style="rounded=1;whiteSpace=wrap;html=1;" parent="1" vertex="1">
          <mxGeometry x="370" y="240" width="150" height="50" as="geometry" />
        </mxCell>
        <mxCell id="EUbtDjJVGPlhu4X-F3TT-32" style="edgeStyle=orthogonalEdgeStyle;rounded=0;orthogonalLoop=1;jettySize=auto;html=1;exitX=0.5;exitY=1;exitDx=0;exitDy=0;entryX=0.5;entryY=0;entryDx=0;entryDy=0;" parent="1" source="EUbtDjJVGPlhu4X-F3TT-29" target="EUbtDjJVGPlhu4X-F3TT-25" edge="1">
          <mxGeometry relative="1" as="geometry">
            <Array as="points">
              <mxPoint x="445" y="400" />
              <mxPoint x="330" y="400" />
              <mxPoint x="330" y="130" />
              <mxPoint x="445" y="130" />
            </Array>
          </mxGeometry>
        </mxCell>
        <mxCell id="EUbtDjJVGPlhu4X-F3TT-38" style="edgeStyle=orthogonalEdgeStyle;rounded=0;orthogonalLoop=1;jettySize=auto;html=1;exitX=0.5;exitY=1;exitDx=0;exitDy=0;entryX=0.5;entryY=0;entryDx=0;entryDy=0;" parent="1" source="EUbtDjJVGPlhu4X-F3TT-29" target="EUbtDjJVGPlhu4X-F3TT-37" edge="1">
          <mxGeometry relative="1" as="geometry" />
        </mxCell>
        <mxCell id="EUbtDjJVGPlhu4X-F3TT-29" value="片方でも瞬きする設定になっているか" style="rounded=1;whiteSpace=wrap;html=1;" parent="1" vertex="1">
          <mxGeometry x="378.75" y="330" width="132.5" height="60" as="geometry" />
        </mxCell>
        <mxCell id="EUbtDjJVGPlhu4X-F3TT-34" value="はい" style="text;html=1;align=center;verticalAlign=middle;resizable=0;points=[];autosize=1;strokeColor=none;fillColor=none;" parent="1" vertex="1">
          <mxGeometry x="400" y="210" width="50" height="30" as="geometry" />
        </mxCell>
        <mxCell id="EUbtDjJVGPlhu4X-F3TT-35" value="いいえ" style="text;html=1;align=center;verticalAlign=middle;resizable=0;points=[];autosize=1;strokeColor=none;fillColor=none;" parent="1" vertex="1">
          <mxGeometry x="500" y="200" width="60" height="30" as="geometry" />
        </mxCell>
        <mxCell id="EUbtDjJVGPlhu4X-F3TT-36" value="いいえ" style="text;html=1;align=center;verticalAlign=middle;resizable=0;points=[];autosize=1;strokeColor=none;fillColor=none;" parent="1" vertex="1">
          <mxGeometry x="330" y="380" width="60" height="30" as="geometry" />
        </mxCell>
        <mxCell id="EUbtDjJVGPlhu4X-F3TT-40" style="edgeStyle=orthogonalEdgeStyle;rounded=0;orthogonalLoop=1;jettySize=auto;html=1;exitX=0.5;exitY=1;exitDx=0;exitDy=0;entryX=0.5;entryY=0;entryDx=0;entryDy=0;" parent="1" source="EUbtDjJVGPlhu4X-F3TT-37" target="EUbtDjJVGPlhu4X-F3TT-39" edge="1">
          <mxGeometry relative="1" as="geometry" />
        </mxCell>
        <mxCell id="EUbtDjJVGPlhu4X-F3TT-42" style="edgeStyle=orthogonalEdgeStyle;rounded=0;orthogonalLoop=1;jettySize=auto;html=1;exitX=0.5;exitY=1;exitDx=0;exitDy=0;entryX=0.5;entryY=0;entryDx=0;entryDy=0;" parent="1" source="EUbtDjJVGPlhu4X-F3TT-37" target="EUbtDjJVGPlhu4X-F3TT-41" edge="1">
          <mxGeometry relative="1" as="geometry" />
        </mxCell>
        <mxCell id="EUbtDjJVGPlhu4X-F3TT-37" value="瞬きまでのカウントがいっぱいになったか" style="rounded=1;whiteSpace=wrap;html=1;" parent="1" vertex="1">
          <mxGeometry x="382.5" y="430" width="125" height="60" as="geometry" />
        </mxCell>
        <mxCell id="EUbtDjJVGPlhu4X-F3TT-45" style="edgeStyle=orthogonalEdgeStyle;rounded=0;orthogonalLoop=1;jettySize=auto;html=1;exitX=0.5;exitY=1;exitDx=0;exitDy=0;entryX=0.5;entryY=0;entryDx=0;entryDy=0;" parent="1" source="EUbtDjJVGPlhu4X-F3TT-39" target="EUbtDjJVGPlhu4X-F3TT-25" edge="1">
          <mxGeometry relative="1" as="geometry">
            <Array as="points">
              <mxPoint x="445" y="620" />
              <mxPoint x="330" y="620" />
              <mxPoint x="330" y="130" />
              <mxPoint x="445" y="130" />
            </Array>
          </mxGeometry>
        </mxCell>
        <mxCell id="EUbtDjJVGPlhu4X-F3TT-39" value="瞬きカウントをリセットし、瞬きフラグをTrueにする" style="rounded=1;whiteSpace=wrap;html=1;" parent="1" vertex="1">
          <mxGeometry x="387.5" y="535" width="115" height="65" as="geometry" />
        </mxCell>
        <mxCell id="EUbtDjJVGPlhu4X-F3TT-46" style="edgeStyle=orthogonalEdgeStyle;rounded=0;orthogonalLoop=1;jettySize=auto;html=1;exitX=0.5;exitY=1;exitDx=0;exitDy=0;entryX=0.5;entryY=0;entryDx=0;entryDy=0;" parent="1" source="EUbtDjJVGPlhu4X-F3TT-41" target="EUbtDjJVGPlhu4X-F3TT-25" edge="1">
          <mxGeometry relative="1" as="geometry">
            <mxPoint x="620" y="150" as="targetPoint" />
            <Array as="points">
              <mxPoint x="595" y="620" />
              <mxPoint x="330" y="620" />
              <mxPoint x="330" y="130" />
              <mxPoint x="445" y="130" />
            </Array>
          </mxGeometry>
        </mxCell>
        <mxCell id="EUbtDjJVGPlhu4X-F3TT-41" value="瞬きカウントを進める" style="rounded=1;whiteSpace=wrap;html=1;" parent="1" vertex="1">
          <mxGeometry x="550" y="537.5" width="90" height="60" as="geometry" />
        </mxCell>
        <mxCell id="EUbtDjJVGPlhu4X-F3TT-43" value="いいえ" style="text;html=1;align=center;verticalAlign=middle;resizable=0;points=[];autosize=1;strokeColor=none;fillColor=none;" parent="1" vertex="1">
          <mxGeometry x="560" y="490" width="60" height="30" as="geometry" />
        </mxCell>
        <mxCell id="EUbtDjJVGPlhu4X-F3TT-44" value="はい" style="text;html=1;align=center;verticalAlign=middle;resizable=0;points=[];autosize=1;strokeColor=none;fillColor=none;" parent="1" vertex="1">
          <mxGeometry x="390" y="507.5" width="50" height="30" as="geometry" />
        </mxCell>
        <mxCell id="EUbtDjJVGPlhu4X-F3TT-47" value="はい" style="text;html=1;align=center;verticalAlign=middle;resizable=0;points=[];autosize=1;strokeColor=none;fillColor=none;" parent="1" vertex="1">
          <mxGeometry x="440" y="400" width="50" height="30" as="geometry" />
        </mxCell>
      </root>
    </mxGraphModel>
  </diagram>
  <diagram id="ix02tU9WOxTMzt5KzRwQ" name="eyeEncodeImg(eyeSystem_ROS2_RP2040.ino)">
    <mxGraphModel dx="494" dy="508" grid="1" gridSize="10" guides="1" tooltips="1" connect="1" arrows="1" fold="1" page="1" pageScale="1" pageWidth="827" pageHeight="1169" math="0" shadow="0">
      <root>
        <mxCell id="0" />
        <mxCell id="1" parent="0" />
        <mxCell id="jjlPSWaxIykPYz9Q28sj-1" value="開始" style="ellipse;whiteSpace=wrap;html=1;" parent="1" vertex="1">
          <mxGeometry x="260" y="70" width="110" height="40" as="geometry" />
        </mxCell>
        <mxCell id="jjlPSWaxIykPYz9Q28sj-2" value="狩猟" style="ellipse;whiteSpace=wrap;html=1;" parent="1" vertex="1">
          <mxGeometry x="260" y="890" width="110" height="40" as="geometry" />
        </mxCell>
        <mxCell id="KF77jqt3qfrg-yixS3Ae-1" value="両目の" style="rounded=1;whiteSpace=wrap;html=1;" vertex="1" parent="1">
          <mxGeometry x="200" y="240" width="120" height="60" as="geometry" />
        </mxCell>
      </root>
    </mxGraphModel>
  </diagram>
</mxfile>
